<?xml version="1.0" encoding="UTF-8" standalone="no"?>
<!-- Created with Inkscape (http://www.inkscape.org/) -->

<svg
   width="1024"
   height="1024"
   viewBox="0 0 270.93334 270.93333"
   version="1.1"
   id="svg1"
   xml:space="preserve"
   sodipodi:docname="orinote.svg"
   inkscape:export-filename="orinote.png"
   inkscape:export-xdpi="48"
   inkscape:export-ydpi="48"
   inkscape:version="1.4.2 (f4327f4, 2025-05-13)"
   xmlns:inkscape="http://www.inkscape.org/namespaces/inkscape"
   xmlns:sodipodi="http://sodipodi.sourceforge.net/DTD/sodipodi-0.dtd"
   xmlns="http://www.w3.org/2000/svg"
   xmlns:svg="http://www.w3.org/2000/svg"><sodipodi:namedview
     id="namedview1"
     pagecolor="#ffffff"
     bordercolor="#000000"
     borderopacity="0.25"
     inkscape:showpageshadow="2"
     inkscape:pageopacity="0.0"
     inkscape:pagecheckerboard="0"
     inkscape:deskcolor="#d1d1d1"
     inkscape:document-units="mm"
     inkscape:zoom="0.25"
     inkscape:cx="346"
     inkscape:cy="372"
     inkscape:window-width="1440"
     inkscape:window-height="878"
     inkscape:window-x="-6"
     inkscape:window-y="-6"
     inkscape:window-maximized="1"
     inkscape:current-layer="layer1" /><defs
     id="defs1"><inkscape:path-effect
       effect="fillet_chamfer"
       id="path-effect12"
       is_visible="true"
       lpeversion="1"
       nodesatellites_param="F,0,0,1,0,2.1166667,0,1 @ F,0,0,1,0,2.1166667,0,1 @ F,0,0,1,0,0.91533797,0,1 @ F,0,0,1,0,1.1076648,0,1 @ F,0,0,1,0,0.92526291,0,1 @ F,0,0,1,0,2.1166667,0,1 @ F,0,0,1,0,2.5727441,0,1 @ F,0,0,1,0,1.2564429,0,1 @ F,0,0,1,0,4.3507369,0,1 @ F,0,1,1,0,2.5727441,0,1 @ F,0,0,1,0,2.1166667,0,1 @ F,0,0,1,0,0.55108909,0,1 @ F,0,0,1,0,0.51639521,0,1 @ F,0,0,1,0,0.7860877,0,1 @ F,0,0,1,0,4.4509744,0,1 | F,0,0,1,0,1.0229108,0,1 @ F,0,0,1,0,2.1166667,0,1 @ F,0,0,1,0,0.61620758,0,1 @ F,0,0,1,0,0.67794629,0,1 @ F,0,0,1,0,2.1166667,0,1 @ F,0,0,1,0,0.83939658,0,1"
       radius="8"
       unit="px"
       method="auto"
       mode="F"
       chamfer_steps="1"
       flexible="false"
       use_knot_distance="true"
       apply_no_radius="true"
       apply_with_radius="true"
       only_selected="false"
       hide_knots="false" /><inkscape:path-effect
       effect="fillet_chamfer"
       id="path-effect11"
       is_visible="true"
       lpeversion="1"
       nodesatellites_param="F,0,0,1,0,1.5875,0,1 @ F,0,0,1,0,1.5875,0,1 @ F,0,0,1,0,1.5875,0,1 @ F,0,0,1,0,1.5875,0,1 @ F,0,0,1,0,1.5875,0,1 @ F,0,0,1,0,1.5875,0,1 @ F,0,0,1,0,1.5875,0,1 @ F,0,0,1,0,1.5875,0,1 @ F,0,0,1,0,1.5875,0,1 @ F,0,0,1,0,1.5875,0,1 @ F,0,0,1,0,1.5875,0,1 @ F,0,0,1,0,1.5875,0,1 @ F,0,0,1,0,1.5875,0,1 @ F,0,0,1,0,1.5875,0,1 @ F,0,0,1,0,1.5875,0,1"
       radius="6"
       unit="px"
       method="auto"
       mode="F"
       chamfer_steps="1"
       flexible="false"
       use_knot_distance="true"
       apply_no_radius="true"
       apply_with_radius="true"
       only_selected="false"
       hide_knots="false" /></defs><g
     inkscape:label="图层 1"
     inkscape:groupmode="layer"
     id="layer1"><rect
       style="fill:#000000;fill-opacity:1;stroke:#000000;stroke-width:0;stroke-linecap:round;stroke-linejoin:round"
       id="rect1"
       width="270.93301"
       height="270.93332"
       x="0"
       y="0"
       rx="60"
       ry="60" /><path
       id="path11"
       style="opacity:1;fill:#ffffff;fill-opacity:1;stroke:#000000;stroke-width:0;stroke-linecap:round;stroke-linejoin:round;stroke-dasharray:none;stroke-opacity:1"
       d="m 174.24576,69.764193 -18.93372,12.633649 a 12.266203,12.266203 136.49594 0 0 -3.02582,2.871809 l -6.53596,8.766956 a 1.0821261,1.0821261 86.47847 0 0 0.0858,1.39507 l 18.95218,19.798803 a 1.0971419,1.0971419 91.525046 0 1 -0.0415,1.55843 l -0.003,0.003 a 0.9876263,0.9876263 179.93122 0 1 -1.35046,0.002 L 131.50231,86.988389 A 7.5621398,7.5621398 27.426846 0 0 127.88388,85.11062 L 84.75531,76.108648 a 0.81125338,0.81125338 119.29117 0 0 -0.757062,1.349557 L 121.276,117.14469 a 1.4516935,1.4516935 87.66883 0 1 0.0773,1.89849 l -32.142575,40.34358 a 1.0165646,1.0165646 51.696481 0 0 1.227137,1.55363 l 33.139888,-15.56063 a 60.584773,60.584773 152.41628 0 0 4.55652,-2.38044 l 36.70494,-21.20471 a 4.8618015,4.8618015 126.45796 0 0 2.30647,-3.12181 l 9.59826,-41.803395 a 0.5994753,0.5994753 145.52313 0 1 0.66889,-0.459321 l 0.32039,0.04568 a 0.5262873,0.5262873 52.571459 0 1 0.44804,0.58541 l -0.98988,8.02958 a 0.65049617,0.65049617 46.63603 0 0 0.68822,0.728689 l 18.81624,-1.235208 a 1.4343155,1.4343155 104.10557 0 0 0.66541,-2.648041 l -19.5591,-12.206211 a 3.2793656,3.2793656 179.12675 0 0 -3.55637,0.05421 z m -44.01881,20.663002 -1.50719,26.686665 a 36.271145,36.271145 96.572279 0 1 -0.48371,4.19837 l -3.40802,19.50279 a 0.72969792,0.72969792 140.09216 0 1 -0.72227,0.60408 l -0.17915,-8.5e-4 a 0.65341926,0.65341926 46.327636 0 1 -0.64975,-0.68058 l 0.84564,-20.32007 a 39.333648,39.333648 95.46334 0 1 0.40247,-4.20802 l 3.9062,-26.00152 a 0.95913735,0.95913735 139.73468 0 1 0.96399,-0.81652 0.92092157,0.92092157 51.230081 0 1 0.83179,1.035655 z"
       sodipodi:nodetypes="ccccccccccccccccccccccc"
       transform="matrix(1.6656923,0,0,1.6656923,-99.241426,-56.295708)"
       inkscape:original-d="m 176.00645,68.589358 -22.4551,14.983319 -8.34819,11.197775 20.35107,21.260188 -1.48518,1.39475 -34.11316,-31.882291 -47.719049,-9.960116 39.899369,42.477507 -35.63658,44.72906 39.4069,-18.50326 40.76546,-23.5505 10.19525,-44.403498 1.37718,0.19637 -1.14924,9.322277 24.04205,-1.578261 z m -45.72182,20.816554 -1.68422,29.821248 -3.87845,22.19487 -1.47329,-0.007 0.96184,-23.11227 4.34536,-28.924782 z"
       inkscape:path-effect="#path-effect12"
       inkscape:label="orinote" /></g></svg>
